<svg xmlns="http://www.w3.org/2000/svg" viewBox="0 0 600 260" width="600" height="260" role="img" aria-label="31 contributions in the last 30 days">
<style>text{font-family:'Segoe UI','Helvetica Neue',Helvetica,Arial,sans-serif}</style>
<rect width="600" height="260" rx="22" fill="#161B38"/>
<text x="24" y="38" font-size="20" font-weight="800" fill="#EAEFFF">31 contributions</text>
<text x="24" y="58" font-size="13" fill="#8A93C0">Last 30 days</text>
<line x1="48" x2="576" y1="220.0" y2="220.0" stroke="#3A4278" stroke-width="1" opacity=".5"/><text x="38" y="224.0" font-size="11" fill="#8A93C0" text-anchor="end">0</text><line x1="48" x2="576" y1="182.5" y2="182.5" stroke="#3A4278" stroke-width="1" opacity=".5"/><text x="38" y="186.5" font-size="11" fill="#8A93C0" text-anchor="end">5</text><line x1="48" x2="576" y1="145.0" y2="145.0" stroke="#3A4278" stroke-width="1" opacity=".5"/><text x="38" y="149.0" font-size="11" fill="#8A93C0" text-anchor="end">10</text><line x1="48" x2="576" y1="107.5" y2="107.5" stroke="#3A4278" stroke-width="1" opacity=".5"/><text x="38" y="111.5" font-size="11" fill="#8A93C0" text-anchor="end">14</text><line x1="48" x2="576" y1="70.0" y2="70.0" stroke="#3A4278" stroke-width="1" opacity=".5"/><text x="38" y="74.0" font-size="11" fill="#8A93C0" text-anchor="end">19</text>
<path d="M48 220 L48.0 220.0 L66.2 220.0 L84.4 220.0 L102.6 220.0 L120.8 220.0 L139.0 220.0 L157.2 220.0 L175.4 220.0 L193.7 204.2 L211.9 220.0 L230.1 220.0 L248.3 212.1 L266.5 196.3 L284.7 188.4 L302.9 220.0 L321.1 212.1 L339.3 220.0 L357.5 220.0 L375.7 220.0 L393.9 220.0 L412.1 220.0 L430.3 220.0 L448.6 220.0 L466.8 220.0 L485.0 220.0 L503.2 220.0 L521.4 212.1 L539.6 220.0 L557.8 220.0 L576.0 70.0 L576 220Z" fill="#38D9C0" opacity=".18"/>
<path d="M48.0 220.0 L66.2 220.0 L84.4 220.0 L102.6 220.0 L120.8 220.0 L139.0 220.0 L157.2 220.0 L175.4 220.0 L193.7 204.2 L211.9 220.0 L230.1 220.0 L248.3 212.1 L266.5 196.3 L284.7 188.4 L302.9 220.0 L321.1 212.1 L339.3 220.0 L357.5 220.0 L375.7 220.0 L393.9 220.0 L412.1 220.0 L430.3 220.0 L448.6 220.0 L466.8 220.0 L485.0 220.0 L503.2 220.0 L521.4 212.1 L539.6 220.0 L557.8 220.0 L576.0 70.0" fill="none" stroke="#38D9C0" stroke-width="3" stroke-linejoin="round" stroke-linecap="round"/>
<circle cx="193.7" cy="204.2" r="3.2" fill="#FFC857" stroke="#080B1A" stroke-width="1.5"/><circle cx="248.3" cy="212.1" r="3.2" fill="#FFC857" stroke="#080B1A" stroke-width="1.5"/><circle cx="266.5" cy="196.3" r="3.2" fill="#FFC857" stroke="#080B1A" stroke-width="1.5"/><circle cx="284.7" cy="188.4" r="3.2" fill="#FFC857" stroke="#080B1A" stroke-width="1.5"/><circle cx="321.1" cy="212.1" r="3.2" fill="#FFC857" stroke="#080B1A" stroke-width="1.5"/><circle cx="521.4" cy="212.1" r="3.2" fill="#FFC857" stroke="#080B1A" stroke-width="1.5"/><circle cx="576.0" cy="70.0" r="3.2" fill="#FFC857" stroke="#080B1A" stroke-width="1.5"/>
<text x="48" y="246" font-size="11" fill="#8A93C0">Sep 10</text>
<text x="576" y="246" font-size="11" fill="#8A93C0" text-anchor="end">Oct 09</text>
</svg>